PathFileType	4	(X/Y/Z)	s01c0103.trc
DataRate	CameraRate	NumFrames	NumMarkers	Units	OrigDataRate	OrigDataStartFrame	OrigNumFrames
200	200	4	48	mm	200	750	2000
Frame#	Time	racr			lacr			c7			jug			rlel			rdr			llel			ldr			s2			lic			ric			lasi			rasi			rpsi			lpsi			rgt			lgt			rth1			rth2			rth3			rth4			rlfc			rsh1			rsh2			rsh3			rsh4			rlmal			rmmal			rcal			rtoe			rmt5			lth1			lth2			lth4			lth3			llfc			lsh1			lsh2			lsh3			lsh4			llmal			lmmal			lcal			ltoe			lmt5			SBIKE			LBIKE			RBIKE			
		X1	Y1	Z1	X2	Y2	Z2	X3	Y3	Z3	X4	Y4	Z4	X5	Y5	Z5	X6	Y6	Z6	X7	Y7	Z7	X8	Y8	Z8	X9	Y9	Z9	X10	Y10	Z10	X11	Y11	Z11	X12	Y12	Z12	X13	Y13	Z13	X14	Y14	Z14	X15	Y15	Z15	X16	Y16	Z16	X17	Y17	Z17	X18	Y18	Z18	X19	Y19	Z19	X20	Y20	Z20	X21	Y21	Z21	X22	Y22	Z22	X23	Y23	Z23	X24	Y24	Z24	X25	Y25	Z25	X26	Y26	Z26	X27	Y27	Z27	X28	Y28	Z28	X29	Y29	Z29	X30	Y30	Z30	X31	Y31	Z31	X32	Y32	Z32	X33	Y33	Z33	X34	Y34	Z34	X35	Y35	Z35	X36	Y36	Z36	X37	Y37	Z37	X38	Y38	Z38	X39	Y39	Z39	X40	Y40	Z40	X41	Y41	Z41	X42	Y42	Z42	X43	Y43	Z43	X44	Y44	Z44	X45	Y45	Z45	X46	Y46	Z46	X47	Y47	Z47	X48	Y48	Z48	
750	3.7500	492.646210	1331.541626	-109.361237	513.985168	1301.173706	-408.979950	460.224091	1388.846924	-254.764603	453.253571	1225.140381	-257.779633	566.424500	1067.539673	-13.618146	734.296326	862.592712	-62.743168	543.716797	1037.597656	-529.961426	720.238647	870.111938	-431.527557	0.000000	0.000000	-0.000000	102.252449	1175.238403	-436.053619	83.499786	1180.786499	-108.145973	104.509529	1124.340210	-413.190796	111.483788	1137.557617	-138.004074	-44.377525	1208.034668	-219.539520	-42.591087	1207.049561	-325.857208	43.253597	1083.478882	-72.655647	40.957726	1031.068115	-455.511993	156.410690	1023.699768	-58.390877	238.689041	1006.174011	-55.883854	324.394897	977.815918	-64.620323	253.464035	1056.026245	-78.191734	403.075195	900.973572	-86.418556	317.397858	821.253967	-60.090450	261.205566	758.079834	-67.496536	196.373199	698.072205	-80.782875	297.738678	725.694641	-102.368484	104.786804	617.340942	-102.469002	150.668457	605.092773	-179.832382	56.712471	617.275818	-159.442276	253.224548	429.911163	-136.926132	153.539139	476.595306	-71.227982	93.951797	911.983826	-458.515900	155.941040	848.259583	-455.146942	195.826279	885.528931	-451.213562	208.437607	783.225098	-434.089966	276.631500	680.690857	-418.689362	233.693878	578.367004	-454.316223	229.518051	492.256104	-447.374969	223.032379	407.452332	-434.099243	284.849579	492.423981	-419.878235	222.225204	290.217102	-406.568451	245.268204	303.929047	-332.358215	169.393616	253.529526	-375.812592	442.047791	198.911484	-371.396362	338.681549	186.416977	-442.535583	-224.334686	892.985779	-254.782410	-12.711199	84.348747	-457.224854	-22.050238	80.856194	-56.988411	
751	3.7550	491.617584	1333.152588	-110.425613	514.400452	1300.678833	-409.048615	459.985870	1389.350098	-255.600525	452.960052	1225.634155	-258.166260	565.362488	1068.820923	-14.599899	733.735352	863.808044	-63.520016	546.629700	1038.377686	-529.930054	721.516785	868.535339	-432.144562	0.000000	0.000000	-0.000000	103.604202	1175.340576	-437.012817	83.264351	1181.941650	-109.578514	104.855453	1123.834595	-414.585815	111.106750	1138.131226	-139.120331	-44.624378	1208.639648	-221.934082	-42.308544	1207.059326	-328.191589	42.766273	1085.605957	-73.819321	40.190884	1030.600464	-456.772949	156.049271	1027.274414	-59.475197	238.505554	1011.175049	-56.954502	324.682465	984.315186	-65.539940	252.398773	1061.197144	-79.607986	405.314423	909.457275	-86.597725	320.582214	828.985962	-60.422096	265.059753	765.366333	-67.764648	200.823654	704.651123	-81.166367	301.993317	733.070923	-102.356125	110.184471	622.661011	-103.437584	156.461288	611.091553	-180.463455	62.434906	621.235779	-160.359497	262.316162	438.399017	-136.613174	161.320648	482.924774	-71.575195	91.450760	910.959290	-459.980133	152.278519	846.035034	-456.908966	192.999542	882.444946	-453.077667	203.567490	779.974548	-435.897644	269.866913	676.333862	-420.417938	226.243042	574.214722	-456.066437	222.179657	488.120941	-448.397369	215.635895	403.342468	-434.803741	277.707275	488.241150	-421.289001	215.030502	286.774872	-407.169647	237.977966	299.817322	-332.420959	162.556229	250.412415	-375.822205	433.822876	191.314865	-371.570862	330.239471	180.603058	-442.688324	-224.426102	892.973755	-254.913376	-12.716156	84.364624	-457.289856	-22.056337	80.888329	-57.032120	
752	3.7600	490.421661	1334.816162	-111.479485	514.763184	1300.180786	-409.093231	459.645264	1389.876343	-256.484497	452.747681	1226.091309	-258.579834	564.155579	1069.992798	-15.493238	733.082886	865.326660	-64.326065	549.655579	1039.072021	-529.802856	723.053345	867.095764	-432.447540	0.000000	0.000000	-0.000000	104.913910	1175.516724	-438.138153	83.029152	1183.045654	-110.761337	105.084320	1123.414673	-415.971375	110.714401	1138.577881	-140.161636	-44.921291	1209.219727	-224.172104	-42.124866	1207.105713	-330.371918	42.270382	1087.715088	-75.046227	39.486336	1030.154663	-457.926544	155.493530	1030.878418	-60.714283	238.234299	1016.045471	-58.316879	324.874725	990.710999	-66.533142	251.008728	1066.231445	-81.321602	407.276306	917.730469	-86.885422	323.756378	836.321045	-60.765221	269.059479	771.937439	-68.128769	205.717941	710.433228	-81.573982	306.578125	740.102844	-102.418144	116.278198	627.170837	-104.320442	162.706345	616.354797	-181.085144	67.658295	624.606384	-161.438385	271.897186	446.256561	-136.333588	169.707779	488.870636	-71.776299	89.261330	910.095642	-461.406403	148.961517	843.972595	-458.611115	190.230194	879.800232	-454.846985	199.006851	777.113831	-437.739960	263.586029	672.598938	-421.849792	219.448792	570.579651	-457.297058	215.088776	484.476685	-449.246460	208.361847	399.819489	-435.468842	270.823914	484.498810	-422.534760	207.621307	283.846008	-407.764191	230.484207	296.172516	-332.461426	155.534393	248.083359	-375.964417	424.826599	183.768127	-371.189911	321.676575	175.586624	-442.903931	-224.480042	892.948792	-255.041824	-12.709280	84.352020	-457.333466	-22.060844	80.911652	-57.078037	
753	3.7650	489.100433	1336.442261	-112.472794	515.061646	1299.676636	-409.126678	459.212738	1390.407593	-257.424591	452.440765	1226.521729	-258.954803	562.704224	1071.073120	-16.240582	732.533508	867.119934	-65.012939	552.792969	1039.661255	-529.481567	724.591125	865.871338	-432.742401	0.000000	0.000000	-0.000000	105.904434	1175.546631	-439.191071	82.776176	1183.990967	-111.817535	105.221191	1123.115967	-417.263855	110.245262	1139.400879	-141.509521	-45.210896	1209.780151	-226.340820	-42.046894	1207.205200	-332.381653	41.647751	1089.865601	-76.087608	38.742889	1029.723877	-459.294922	155.027374	1034.639282	-61.913876	237.847610	1020.956299	-59.686729	324.950653	996.962036	-67.571960	249.884232	1071.213501	-82.883034	408.865936	925.800232	-87.283119	326.992828	843.242615	-61.191559	273.348022	777.992249	-68.580414	210.861832	715.536926	-82.074760	311.348419	746.643372	-102.612274	122.741173	630.888184	-105.235229	169.266556	620.864258	-181.725372	73.893616	627.216064	-162.520493	281.721771	453.439240	-135.958176	178.539917	494.093475	-72.357208	87.187943	909.388916	-462.805878	145.791611	842.379883	-460.285370	187.640610	877.488770	-456.518311	194.918655	774.601318	-439.587067	257.917236	669.329651	-423.188507	213.224808	567.505554	-458.356628	208.350128	481.477386	-450.083344	201.275269	396.846893	-436.118195	264.218536	481.266724	-423.611542	200.026550	281.440735	-408.348267	222.822403	293.008087	-332.482208	148.360886	246.609146	-376.293304	415.911194	177.110092	-371.338562	312.556854	170.721695	-443.070404	-224.551834	892.949158	-255.236465	-12.724263	84.289574	-457.332458	-22.075182	80.936203	-57.114952	
